<svg id="svg4" height="1600" viewBox="0 0 1600 1600" width="1600" xmlns="http://www.w3.org/2000/svg"
     xmlns:inkscape="http://www.inkscape.org/namespaces/inkscape"
     xmlns:sodipodi="http://sodipodi.sourceforge.net/DTD/sodipodi-0.dtd">
  <sodipodi:namedview pagecolor="#303030" showgrid="true">
    <inkscape:grid id="grid5" units="px" spacingx="100" spacingy="100" color="#4772b3" opacity="0.2" visible="true" />
  </sodipodi:namedview>
  <g fill="#fff">
    <path id="path2" transform="matrix(100 0 0 100 -32000 -36700)"
          opacity=".8" d="m327.12891 369.9668a1.0001 1.0001 0 0 0 -.16797.0234c-2.00329.41569-3.57155 1.99062-3.97656 3.9961a1.0003053 1.0003053 0 1 0 1.96093.39648c.24758-1.22589 1.19732-2.17949 2.42188-2.43359a1.0001 1.0001 0 0 0 -.23828-1.98242z" />
    <path id="path3"
          d="m-506.01562 106.24414a.50005.50005 0 0 0 -.375.19336c-.70647.88308-1.16919 1.99665-1.41016 3.5625h-3.94922c-.67616-.01-.67616 1.00956 0 1h3.83203c-.0522.60644-.082 1.26334-.082 2 0 .73665.0299 1.39356.082 2h-3.83203c-.67616-.01-.67616 1.00956 0 1h3.94922c.24099 1.56587.70375 2.67949 1.41016 3.5625a.50024408.50024408 0 0 0 .78124-.625c-.56556-.70695-.96391-1.59657-1.18554-2.9375h6.54492c.67616.01.67616-1.00956 0-1h-6.66797c-.0526-.59052-.082-1.24749-.082-2s.0294-1.40947.082-2h6.66797c.67616.01.67616-1.00956 0-1h-6.54492c.22165-1.34096.62004-2.23062 1.18554-2.9375a.50005.50005 0 0 0 -.40624-.81836z"
          transform="matrix(100 0 0 100 51400 -10500)" />
    <path id="path1" transform="matrix(100 0 0 100 -32000 -36700)"
          opacity=".8" d="m328 368c-3.86007 0-7 3.13993-7 7s3.13993 7 7 7 7-3.13993 7-7-3.13993-7-7-7zm0 1c3.11844 0 5.67234 2.36547 5.97049 5.40408l-1.18729-1.18728a.40004001.40004001 0 0 0 -.28711-.1211.40004001.40004001 0 0 0 -.27929.6875l1.75785 1.75785c-.04738.5324-.16265 1.04491-.33942 1.52778l-1.60203-1.60203a.40004001.40004001 0 0 0 -.28711-.1211.40004001.40004001 0 0 0 -.27929.6875l1.81672 1.81672c-.21383.39642-.47192.76494-.76606 1.10113l-1.73426-1.73425a.40004001.40004001 0 0 0 -.28711-.1211.40004001.40004001 0 0 0 -.27929.6875l1.73425 1.73426c-.33619.29414-.70471.55223-1.10113.76606l-1.81672-1.81672a.40004001.40004001 0 0 0 -.28711-.1211.40004001.40004001 0 0 0 -.27929.6875l1.60203 1.60203c-.41494.1519-.85204.25758-1.30449.31487a.40004001.40004001 0 0 0 -.00067-.00088l-2-1.75a.40004001.40004001 0 0 0 -.2539-.10352.40004001.40004001 0 0 0 -.27344.70508l1.35283 1.18373c-3.12694-.21058-5.58916-2.80315-5.58916-5.98451 0-3.31963 2.68037-6 6-6z" />
    <path id="path1"
          d="m34 116c-3.860075 0-7 3.13992-7 7 0 3.86007 3.139928 7 7 7s7-3.13993 7-7c0-3.86008-3.139925-7-7-7zm0 1c3.319633 0 6 2.68036 6 6 0 3.31963-2.680364 6-6 6s-6-2.68037-6-6c0-3.31964 2.680367-6 6-6z"
          transform="matrix(100 0 0 100 -2600 -11500)" />
  </g>
</svg>
